<svg width="40" height="40" viewBox="0 0 40 40" fill="none" xmlns="http://www.w3.org/2000/svg">
<g clip-path="url(#clip0)">
<path d="M20 40.0001C31.0457 40.0001 40 31.0458 40 20.0001C40 8.95437 31.0457 6.10352e-05 20 6.10352e-05C8.9543 6.10352e-05 0 8.95437 0 20.0001C0 31.0458 8.9543 40.0001 20 40.0001Z" fill="#2DAAE1"/>
<path d="M32.8239 12.0444C31.8806 12.463 30.8673 12.7459 29.802 12.8731C30.8892 12.2221 31.7222 11.1904 32.1155 9.96247C31.0826 10.5759 29.9523 11.0078 28.7736 11.2393C27.8143 10.2168 26.4465 9.57843 24.9331 9.57843C22.0283 9.57843 19.6725 11.9333 19.6725 14.8397C19.6725 15.2515 19.7189 15.6533 19.8081 16.039C15.4353 15.8193 11.5586 13.7247 8.96368 10.542C8.51057 11.3193 8.25122 12.223 8.25122 13.1873C8.25122 15.0124 9.18018 16.6227 10.5917 17.566C9.75611 17.5401 8.93884 17.3146 8.20823 16.9082V16.9747C8.20823 19.5241 10.0215 21.6499 12.4286 22.1333C11.9864 22.2545 11.5224 22.3178 11.0423 22.3178C10.7029 22.3178 10.3736 22.2857 10.0519 22.2251C10.7214 24.3147 12.6645 25.8357 14.9662 25.8787C13.1655 27.2902 10.8966 28.1317 8.43227 28.1317C8.00782 28.1317 7.58833 28.1063 7.17651 28.0567C9.50527 29.5499 12.2703 30.4216 15.2416 30.4216C24.9188 30.4216 30.2113 22.4046 30.2113 15.4521C30.2113 15.2238 30.2063 14.9973 30.1953 14.7715C31.2264 14.0257 32.1165 13.1022 32.8239 12.0444Z" fill="white"/>
</g>
<defs>
<clipPath id="clip0">
<rect width="40" height="40" fill="white"/>
</clipPath>
</defs>
</svg>
